Motion_pu05
version=1
nRows=12
nColumns=43
inDegrees=yes
endheader
time	pelvis_tilt	pelvis_list	pelvis_rotation	pelvis_tx	pelvis_ty	pelvis_tz	hip_flexion_r	hip_adduction_r	hip_rotation_r	knee_angle_r	ankle_angle_r	subtalar_angle_r	mtp_angle_r	hip_flexion_l	hip_adduction_l	hip_rotation_l	knee_angle_l	ankle_angle_l	subtalar_angle_l	mtp_angle_l	lumbar_extension	lumbar_bending	lumbar_rotation	neck_flexion	neck_lateral_bending	neck_rotation	arm_flex_r	arm_add_r	arm_rot_r	elbow_flex_r	pro_sup_r	wrist_flex_r	wrist_dev_r	hand_finger_flex_r	arm_flex_l	arm_add_l	arm_rot_l	elbow_flex_l	pro_sup_l	wrist_flex_l	wrist_dev_l	hand_finger_flex_l
      3.69250000	     -4.10555617	      0.16135329	    -96.35225018	      0.00253968	      0.96173921	      0.69916276	     -1.47164803	     -3.51433132	      3.51404782	    -27.61139916	      7.36158267	     -6.47593914	     13.84214570	     -3.91845269	     -3.97967153	    -26.09141197	     -5.08229882	      7.77452866	     21.68090968	      6.30430814	    -18.28797358	      4.80357467	      7.16142044	    -35.74298007	     -0.08247623	    -10.98721868	    -30.38838188	   -142.99983110	   -127.19003976	     61.37226749	    127.47506014	    -10.06310994	     -5.95470722	    -22.82036121	    102.80325232	    -37.36883211	     10.99878200	    103.17160409	    150.56685634	    -21.51595887	      9.58257704	    -16.11131358
      3.69500000	     -4.21386717	      0.06048828	    -96.36389767	      0.00257366	      0.96190168	      0.69828492	     -1.77473671	     -3.44914619	      3.56204490	    -27.26807586	      7.30598866	     -6.35244034	     13.84515422	     -3.95302236	     -4.09546333	    -26.12045514	     -5.15091701	      7.78964417	     21.65598366	      6.27528878	    -18.36550467	      4.93464889	      7.18257916	    -35.82188747	     -0.00318398	    -10.83998341	    -30.89238711	   -142.73249359	   -127.29824577	     61.93674548	    127.51417685	    -10.87334727	     -5.75457996	    -23.63057435	    101.66056467	    -37.48740907	     10.41495962	    103.90434234	    150.46306443	    -21.62007390	      9.67203201	    -16.23642203
      3.69750000	     -4.24825319	     -0.02931467	    -96.31336782	      0.00242704	      0.96178363	      0.69660600	     -1.85333361	     -3.42369123	      3.57941331	    -27.28210160	      7.32530676	     -6.32073462	     13.84981935	     -3.91503882	     -4.16565568	    -26.11449042	     -5.18456822	      7.80843960	     21.66371198	      6.26836307	    -18.55703411	      4.91391099	      7.18922456	    -35.70210889	     -0.10706203	    -10.80401502	    -31.08356496	   -142.30958587	   -127.29664803	     62.45634131	    127.54200499	    -11.11525964	     -5.74812312	    -23.86735122	    101.02835957	    -37.63169617	     10.35693652	    104.55247012	    150.45592944	    -21.71147200	      9.60529980	    -16.28638990
      3.70000000	     -4.46086716	     -0.14079524	    -96.32800247	      0.00295962	      0.96215058	      0.69610496	     -2.32321390	     -3.32538122	      3.56974190	    -26.63380578	      7.12612469	     -5.97768277	     13.81231473	     -4.04870889	     -4.33161675	    -26.23777787	     -5.14677910	      7.84183419	     21.64866971	      6.21013812	    -18.62089898	      5.32024000	      7.20144772	    -36.06818713	     -0.12651386	    -10.63169879	    -31.65160654	   -142.37706375	   -127.40616287	     62.85789156	    127.69595089	    -12.47137943	     -5.44729222	    -25.22969800	     99.39574153	    -37.89635315	      9.44553781	    105.54058484	    150.27143079	    -21.63135658	      9.68855617	    -16.40553385
      3.70250000	     -4.49301539	     -0.28079388	    -96.30260808	      0.00272274	      0.96217268	      0.69429958	     -2.37041096	     -3.30094292	      3.55142130	    -26.78351815	      7.18128112	     -5.95877404	     13.81649772	     -4.03821854	     -4.41242122	    -26.19046629	     -5.23331665	      7.85302979	     21.68933874	      6.20231997	    -18.87195752	      5.27246682	      7.22782636	    -35.71669645	     -0.22641715	    -10.65452900	    -31.92689744	   -141.95806056	   -127.57007174	     63.42026332	    127.72971561	    -12.61754671	     -5.48208271	    -25.41214706	     98.69750759	    -37.90321902	      9.23357400	    106.11399679	    150.25524346	    -21.73367255	      9.65630127	    -16.45662812
      3.70500000	     -4.52905815	     -0.45332672	    -96.31329594	      0.00281821	      0.96247075	      0.69264256	     -2.52881504	     -3.31434570	      3.59912543	    -26.71401257	      7.20647498	     -5.85485281	     13.80607886	     -4.05217030	     -4.46872324	    -26.14161800	     -5.37830117	      7.87124357	     21.72464913	      6.18754423	    -19.12848694	      5.32711728	      7.25296121	    -35.43125321	     -0.04978394	    -10.70396353	    -32.33487603	   -141.77435791	   -127.86025254	     63.93649115	    127.75650293	    -13.04175335	     -5.46978399	    -25.77623301	     97.63161008	    -37.90240870	      8.73228624	    106.81789010	    150.20463032	    -21.84988872	      9.66381517	    -16.52094836
      3.70750000	     -4.56799867	     -0.57246566	    -96.29633680	      0.00277035	      0.96239737	      0.69119652	     -2.67673530	     -3.30693496	      3.63748951	    -26.67510990	      7.22612047	     -5.76957985	     13.79713743	     -4.05852106	     -4.53039106	    -26.11884687	     -5.45711767	      7.89640490	     21.73000217	      6.17908436	    -19.33027376	      5.31714812	      7.27149073	    -35.26790077	     -0.06344080	    -10.71217293	    -32.63049216	   -141.37220929	   -127.97094553	     64.48673043	    127.78341635	    -13.38257744	     -5.49150100	    -26.02216341	     96.78563323	    -38.01316233	      8.43116431	    107.50515416	    150.18316740	    -21.95713598	      9.61748956	    -16.56529993
      3.71000000	     -4.68951068	     -0.73857138	    -96.38525860	      0.00306607	      0.96275110	      0.69041804	     -3.09073312	     -3.28729642	      3.68936806	    -26.18742474	      7.13895018	     -5.43407255	     13.74444138	     -4.20027558	     -4.61376325	    -26.15568575	     -5.48727322	      7.93015800	     21.68121360	      6.14538874	    -19.47739133	      5.54719427	      7.32895732	    -35.34488405	      0.12311670	    -10.71402367	    -33.26595911	   -141.37773988	   -128.30815350	     64.96616846	    127.87171761	    -14.33225619	     -5.46034912	    -26.68943225	     95.26115941	    -38.11516005	      7.45109815	    108.22384442	    150.07274303	    -21.96166505	      9.64192434	    -16.59888342
      3.71250000	     -4.77846736	     -0.90856743	    -96.37764954	      0.00318028	      0.96299143	      0.68886087	     -3.27719553	     -3.23867290	      3.67238730	    -26.08285527	      7.14837077	     -5.25108966	     13.72229268	     -4.27336411	     -4.68887559	    -26.16515301	     -5.49953604	      7.94224017	     21.67267239	      6.12295675	    -19.72237240	      5.63674848	      7.39870110	    -35.17757412	     -0.05268350	    -10.68526297	    -33.67943317	   -141.08463919	   -128.58159344	     65.53049256	    127.97233319	    -14.76741407	     -5.50116475	    -27.02080564	     94.19865595	    -38.02366804	      7.08009601	    109.00603331	    150.03401093	    -21.98780378	      9.53917661	    -16.62070009
      3.71500000	     -4.89001692	     -1.06793172	    -96.42937070	      0.00331895	      0.96320158	      0.68793100	     -3.62010508	     -3.21467103	      3.70749935	    -25.75057720	      7.13275369	     -4.94456105	     13.69064351	     -4.40656191	     -4.79020817	    -26.19419021	     -5.51371654	      7.94488304	     21.64094867	      6.08880267	    -19.90290585	      5.77523758	      7.44542736	    -35.14250496	     -0.02739903	    -10.63198974	    -34.24117585	   -140.85623019	   -128.92213476	     66.13565073	    128.12239127	    -15.32107933	     -5.55709790	    -27.43968758	     92.91013364	    -38.12483926	      6.34174128	    109.73076100	    149.96638573	    -21.96763336	      9.45580721	    -16.62565344
      3.71750000	     -4.91338354	     -1.19358371	    -96.37115811	      0.00335699	      0.96317882	      0.68599627	     -3.67174118	     -3.19285664	      3.72559222	    -25.76465388	      7.19116560	     -4.88289260	     13.69381982	     -4.38446548	     -4.82609576	    -26.17886660	     -5.54592479	      7.96731318	     21.64339136	      6.08377804	    -20.17021245	      5.75946731	      7.48472249	    -34.96037615	     -0.20501236	    -10.59138976	    -34.46953770	   -140.39421182	   -129.04853191	     66.83677620	    128.17631968	    -15.47165925	     -5.63102881	    -27.53850697	     92.20436387	    -38.12625075	      6.26032199	    110.36082932	    149.96859879	    -22.04758871	      9.35280564	    -16.64607310
      3.72000000	     -5.01787103	     -1.37147194	    -96.48022179	      0.00336393	      0.96360326	      0.68528307	     -4.08028762	     -3.17392899	      3.79434583	    -25.34304244	      7.21744262	     -4.54216462	     13.68405755	     -4.52811262	     -4.91619651	    -26.17096581	     -5.61510133	      7.95960847	     21.58954344	      6.05194995	    -20.30340776	      5.86913355	      7.56947285	    -34.86382407	      0.02218340	    -10.46951698	    -35.31353623	   -140.12787824	   -129.68042182	     67.53524342	    128.31629279	    -15.96009263	     -5.70167244	    -27.86838633	     90.68362834	    -38.01027600	      5.38020189	    111.08884711	    149.89444944	    -22.06646110	      9.28584577	    -16.63534394
